<svg width="301" height="63" viewBox="0 0 301 63" fill="none" xmlns="http://www.w3.org/2000/svg">
<path d="M237.33 58.51C233.04 55.84 229.7 52.13 227.3 47.37C224.9 42.61 223.7 37.2 223.7 31.13C223.7 24.53 225 18.88 227.61 14.18C230.21 9.48 233.62 5.95 237.82 3.57C242.02 1.19 246.51 0 251.26 0C256.1 0 260.66 1.23 264.95 3.69C269.24 6.15 272.66 9.83 275.23 14.73C277.79 19.63 278.99 25.51 278.83 32.36H228.5C228.62 37.45 229.68 41.93 231.67 45.8C233.66 49.68 236.4 52.67 239.88 54.78C243.37 56.89 247.39 57.95 251.94 57.95H253.11C257.7 57.95 261.72 56.88 265.17 54.75C268.62 52.62 271.36 49.58 273.42 45.64L277.73 47.55C275.31 52.23 271.97 55.89 267.7 58.53C263.43 61.18 258.57 62.5 253.12 62.5H251.95C246.48 62.51 241.61 61.17 237.33 58.51ZM273.97 28.05C273.56 22.96 272.26 18.64 270.06 15.07C267.87 11.5 265.12 8.82 261.81 7.01C258.51 5.21 255.01 4.3 251.32 4.3C247.63 4.3 244.12 5.2 240.8 7.01C237.48 8.82 234.71 11.51 232.49 15.1C230.27 18.69 228.96 23.01 228.55 28.05H273.97Z" fill=" #c6005c"/>
<path d="M298.57 62.32C296.06 62.32 294.13 61.48 292.78 59.81C291.44 58.13 290.76 55.69 290.76 52.49V1.47998H296.13V52.32C296.13 53.82 296.25 54.91 296.5 55.59C296.75 56.27 297.14 56.7 297.69 56.89C298.24 57.08 299.09 57.13 300.25 57.04L300.55 62.15C299.64 62.27 298.98 62.32 298.57 62.32Z" fill=" #c6005c"/>
<path d="M45.18 56.57C45.18 59.1 46.89 61.26 49.33 61.89H32.37C34.81 61.26 36.52 59.09 36.52 56.57V32.22H9.29L12.81 34.29V56.56C12.81 57.82 13.26 59 13.98 59.99C14.7 60.89 15.69 61.61 16.96 61.88H0C2.44 61.25 4.15 59.08 4.15 56.56V8.86004C4.15 7.69004 3.7 6.42004 2.98 5.52004C2.26 4.53004 1.18 3.90004 0 3.54004H16.95C14.51 4.17004 12.8 6.43004 12.8 8.86004V31.13H36.52V8.87004C36.52 6.43004 34.81 4.18004 32.37 3.55004H49.32C46.89 4.18004 45.17 6.44004 45.17 8.87004V56.57H45.18Z" fill="#c6005c"/>
<path d="M113.03 61.89H94.6999V51.3C91.3399 55.82 85.5299 60.59 76.7599 62.14C75.2099 62.4 73.7899 62.53 72.3699 62.53C66.9499 62.53 62.8199 61.76 59.3299 58.01C55.8399 54.4 53.6499 49.62 53.6499 44.46C53.6499 43.04 53.7799 41.62 54.1699 40.2C58.6899 21.1 92.5099 15.67 94.3199 15.41C93.6699 12.7 92.2499 10.12 90.3199 8.18C87.4799 5.47 83.7399 3.79 79.6099 3.79C65.4099 3.79 64.6399 21.6 64.6399 25.22V25.87L54.9599 17.61C56.2499 14.9 58.0599 12.45 60.2499 10.25C65.1599 5.34 72.1299 2.25 79.6099 2.25C95.8799 2.25 107.11 10.51 107.11 29.75V54.28C107.11 55.96 107.76 57.77 108.79 59.06C109.82 60.35 111.22 61.37 113.03 61.89ZM94.6999 18.78C94.6999 18.13 94.5699 17.62 94.5699 16.97C94.4399 16.97 91.5999 17.49 87.4699 18.52C75.9799 21.49 66.8199 31.43 66.8199 43.18C66.8199 54.41 72.6299 58.03 78.0499 58.67H79.3399C83.0799 58.67 86.4399 57.25 89.4099 54.54C91.8599 52.47 93.5399 50.15 94.6999 48.47V18.78Z" fill=" #c6005c"/>
<path d="M158.85 18.65C158.85 12.45 155.11 6.76997 149.56 6.76997C141.17 6.76997 135.62 17.1 135.23 30.39V54.27C135.23 55.95 135.75 57.76 136.91 59.05C137.94 60.34 139.36 61.37 141.04 61.89H116.9C120.26 60.99 122.71 57.76 122.71 54.27V15.41C122.71 13.6 122.19 11.92 121.03 10.63C120 9.20997 118.58 8.17997 116.9 7.78997L135.23 2.49997V20.57C137.68 9.85997 143.62 1.71997 153.17 1.71997C158.72 1.71997 163.24 3.39997 166.72 6.49997L158.85 19.28V18.65Z" fill=" #c6005c"/>
<path d="M212.55 18.65C212.55 12.45 208.81 6.76997 203.26 6.76997C194.87 6.76997 189.32 17.1 188.93 30.39V54.27C188.93 55.95 189.45 57.76 190.61 59.05C191.64 60.34 193.06 61.37 194.74 61.89H170.6C173.96 60.99 176.41 57.76 176.41 54.27V15.41C176.41 13.6 175.89 11.92 174.73 10.63C173.7 9.20997 172.28 8.17997 170.6 7.78997L188.93 2.49997V20.57C191.38 9.85997 197.32 1.71997 206.87 1.71997C212.42 1.71997 216.94 3.39997 220.42 6.49997L212.55 19.28V18.65Z" fill=" #c6005c"/>
</svg>
